/* XPM */
static char *ba05ee57a2454119ba88cd6d966447462n24Os4gRLCV1Yvx[] = {
/* columns rows colors chars-per-pixel */
"32 32 4 1 ",
"  c None",
". c black",
"X c red",
"o c #0035FF",
/* pixels */
"                                ",
"                                ",
"                                ",
"                    ... oo      ",
"                   ....ooo      ",
"       XX         ....oooo      ",
"       XX         ... ooo       ",
"     ..XXXX      ... ooo        ",
"     ....XXX     .. ooo         ",
"      .....XX   ...oooo         ",
"       .....XX  ..oooo          ",
"         ....XX ..ooo           ",
"          ....XXXooo            ",
"           ....Xooo             ",
"            ...ooooX            ",
"           ...ooooXXX           ",
"          ...oooo...XX          ",
"         ....ooo ....XX         ",
"        ....ooo   ....XX        ",
"       ....ooo     ...XXXX      ",
"      .... ooo      ...XXXX     ",
"     .... ooo        ... XXX    ",
"     ... oooo        .....XX    ",
"    ... oooo           ....XXX  ",
"    ...oooo             ....XXX ",
"   ...oooo               .....X ",
"  ...oooo                 ....X ",
"  ..oooo                    ..  ",
"  .oooo                         ",
"   ooo                          ",
"                                ",
"                                "
};
