/* XPM */
static char *_5c137fe31d84b6ae7233b0c9beb3ef7ECQNOpi9REXZH5cq[] = {
/* columns rows colors chars-per-pixel */
"32 288 53 1 ",
"  c None",
". c #3A1A1A",
"X c #191D27",
"o c #2D2D2D",
"O c #202431",
"+ c #353535",
"@ c gray22",
"# c #3A3A3A",
"$ c gray24",
"% c #3F3F3F",
"& c #450C09",
"* c #4F0F0C",
"= c #54100C",
"- c #5A130F",
"; c #5E130E",
": c #5E130F",
"> c #421F1F",
", c #611310",
"< c #651612",
"1 c #6F1512",
"2 c #6D1814",
"3 c #7A1612",
"4 c #7E1E1A",
"5 c #7E211C",
"6 c #452222",
"7 c #3A3C40",
"8 c #3E3F43",
"9 c #253A78",
"0 c #2C417E",
"q c #444549",
"w c gray35",
"e c #5B5B5B",
"r c #606060",
"t c #686868",
"y c #AB1E00",
"u c #87221E",
"i c #96241F",
"p c #AC241D",
"a c #A72620",
"s c #A92822",
"d c #D41C00",
"f c #EA2C03",
"g c #EA6903",
"h c #87867C",
"j c #BEB36E",
"k c #C6BA78",
"l c #D2C47D",
"z c gray51",
"x c #B28686",
"c c #ADAC9F",
"v c #E3A9A7",
"b c #DCD28D",
"n c #D3CB96",
/* pixels */
"7qqqq7ooq7777ooooqoooq77778oooqq",
"777777oq77778ooqq77ooq77788oooq7",
"q77778oq777788oq7788o7788oooqooo",
"q7788ooo7888oooo78ooooooooqq7q7o",
"8ooooooooooooqqoooo7777ooq77777o",
"ooqooqqq7ooqq777ooq77788oq77778o",
"qq7oq7777oq7778ooo77778ooo78888o",
"o77oo7778oo788ooqooo888ooooo8ooo",
"oo8ooo88oooooooqqqqoo8ooqq7oooqq",
"7ooooooooqqqooq7778ooooq7777oq77",
"8ooqqqooq7778oq778oooqq77778o777",
"8oqq777oo7788ooo8ooqoo777788o778",
"8oq77778ooooooqoooq77oo7888ooooo",
"oo777778oqqqoq7q8oq778oooo8oqqqo",
"oo77788ooq77oq78ooo78oooqoooq777",
"oooo8oooq777ooooooooooqq7ooq7778",
"oqqoooqoo77778oqq77ooqq778oq7778",
"oq77oqqqoo88oooq7778oq7778o7788o",
"q778oq777oooooq77788o7788oooo8oo",
"o778oq778ooqqooo788oooooooqqoooo",
"oo8ooo88ooq777qoooooqqqooqq77ooq",
"qoooqooooqq777777oqq778ooq7788oq",
"78oqq7oooq777778ooq7788ooo78oooq",
"8ooq77qqoo777788ooo8ooooqooooqq7",
"ooq77777oo7888oooqoooqqq77oooq78",
"ooq77778oooooooqq7ooq77777oooooo",
"qoo77788oqqq7oq7777o777778oqqq7o",
"qqooo8oooq777oq7778oo7888ooq777o",
"q7q7oooqq7778oo78oooooooooqq77oo",
"77778oq7778888ooooqq77oqqoo77ooq",
"oo788oo8oooo8ooqq7777ooq77oooooo",
"qooooooooqqoooqqooo7ooq7777ooooq",
"     7ooq7777ooooqoooq77778     ",
"   777oq77778ooqq77ooq77788oo   ",
"  7778oq777788oq7788o7788oooqo  ",
" 7788ooo7888oooo78ooooooooqq7q7 ",
" ooooooooooooqqoooo7777ooq77777o",
"ooqooqqq7ooqq777ooq77788oq77778o",
"qq7oq7777oq7778ooo77778ooo78888o",
"o77oo7778oo788ooqooo888ooooo8ooo",
"oo8ooo88oooooooqqqqoo8ooqq7oooqq",
"7ooooooooqqqooq7778ooooq7777oq77",
"8ooqqqooq7778oq778oooqq77778o777",
"8oqq777oo7788ooo8ooqoo777788o778",
"8oq77778ooooooqoooq77oo7888ooooo",
"oo777778oqqqoq7q8oq778oooo8oqqqo",
"oo77788ooq77oq78ooo78oooqoooq777",
"oooo8oooq777ooooooooooqq7ooq7778",
"oqqoooqoo77778oqq77ooqq778oq7778",
"oq77oqqqoo88oooq7778oq7778o7788o",
"q778oq777oooooq77788o7788oooo8oo",
"o778oq778ooqqooo788oooooooqqoooo",
"oo8ooo88ooq777qoooooqqqooqq77ooq",
"qoooqooooqq777777oqq778ooq7788oq",
"78oqq7oooq777778ooq7788ooo78oooq",
"8ooq77qqoo777788ooo8ooooqooooqq7",
"ooq77777oo7888oooqoooqqq77oooq78",
"ooq77778oooooooqq7ooq77777oooooo",
"qoo77788oqqq7oq7777o777778oqqq7o",
"qqooo8oooq777oq7778oo7888ooq777o",
" 7q7oooqq7778oo78oooooooooqq77o ",
" 7778oq7778888ooooqq77oqqoo77oo ",
"  788oo8oooo8ooqq7777ooq77oooo  ",
"     ooooqqoooqqooo7ooq7777     ",
"7qqqq                      oooqq",
"777                          oq7",
"q7                            oo",
"q                              o",
"8                              o",
"                                ",
"                                ",
"                                ",
"                                ",
"                                ",
"                                ",
"                                ",
"                                ",
"                                ",
"                                ",
"                                ",
"                                ",
"                                ",
"                                ",
"                                ",
"                                ",
"                                ",
"                                ",
"                                ",
"                                ",
"                                ",
"                                ",
"q                              o",
"q                              o",
"77                            oq",
"oo7                          ooo",
"qoooo                      ooooq",
"yggggyffgyyyyffffgfffgyyyydfffgg",
"yyyyyyfgyyyydffggyyffgyyyddfffgy",
"gyyyydfgyyyyddfgyyddfyyddfffgfff",
"gyyddfffydddffffydffffffffggygyf",
"dffffffffffffggffffyyyyffgyyyyyf",
"ffgffgggyffggyyyffgyyyddfgyyyydf",
"ggyfgyyyyfgyyydfffyyyydfffyddddf",
"fyyffyyydffyddffgfffdddfffffdfff",
"ffdfffddfffffffggggffdffggyfffgg",
"yffffffffgggffgyyydffffgyyyyfgyy",
"dffgggffgyyydfgyydfffggyyyydfyyy",
"dfggyyyffyyddfffdffgffyyyyddfyyd",
"dfgyyyydffffffgfffgyyffydddfffff",
"ffyyyyydfgggfgygdfgyydffffdfgggf",
"ffyyyddffgyyfgydfffydfffgfffgyyy",
"ffffdfffgyyyffffffffffggyffgyyyd",
"fggfffgffyyyydfggyyffggyydfgyyyd",
"fgyyfgggffddfffgyyydfgyyydfyyddf",
"gyydfgyyyfffffgyyyddfyyddffffdff",
"fyydfgyydffggfffyddfffffffggffff",
"ffdfffddffgyyygfffffgggffggyyffg",
"gfffgffffggyyyyyyfggyydffgyyddfg",
"ydfggyfffgyyyyydffgyyddfffydfffg",
"dffgyyggffyyyyddfffdffffgffffggy",
"ffgyyyyyffydddfffgfffgggyyfffgyd",
"ffgyyyydfffffffggyffgyyyyyffffff",
"gffyyyddfgggyfgyyyyfyyyyydfgggyf",
"ggfffdfffgyyyfgyyydffydddffgyyyf",
"gygyfffggyyydffydfffffffffggyyff",
"yyyydfgyyyddddffffggyyfggffyyffg",
"ffyddffdffffdffggyyyyffgyyffffff",
"gffffffffggfffggfffyffgyyyyffffg",
"                                ",
"                                ",
"                                ",
"                                ",
"                                ",
"           cccccccccc           ",
"         ccbbbbbbbbbbhh         ",
"        cbbllllllllllbbh        ",
"       cblllkkkkkkkklllbh       ",
"      cbllkkrrrrrrrtkklljh      ",
"      cblkrrrrrrrrrrrrnljh      ",
"     cbllkrrre%%%%eerrnlljh     ",
"     cblkrree%###$%eeernljh     ",
"     cblkrew######$%eernljh     ",
"     cblkre###@@@@$$qernljh     ",
"     cblkre##@@++@@%$ernljh     ",
"     cblkre##@@+##%%%ernljh     ",
"     cblkrr%%#@@++%%qernlkh     ",
"     cblkrrr6##@%%%%wrrnljh     ",
"     cblkrrrt%%%%%%eerrnljh     ",
"     cblkrrrre87%%rrrrrnljh     ",
"     cbllnrrrre8%rrrrrtnljh     ",
"      cblnrrrrrrrrrrrrnllh      ",
"      cbllnnrrrrrrrrnnlljh      ",
"       cblllnnnnnnnnllljh       ",
"        clllllllllllljjh        ",
"         hhjjjjjjjjjjhh         ",
"           zhhhhhhhhh           ",
"                                ",
"                                ",
"                                ",
"                                ",
"                                ",
"                                ",
"                                ",
"                                ",
"                                ",
"                                ",
"                                ",
"                                ",
"             uuuu5              ",
"            auvuuu3             ",
"           savuvuu33            ",
"          ssvuvuuuu33           ",
"         saauuuuuvu333          ",
"        pvaauuuuuuu3333         ",
"        aaaauuuuuuu3333         ",
"        aaaauuuuuuu3333         ",
"        ::::2222222====         ",
"        ::::2222222====         ",
"         :::2222222===          ",
"          :::222222==           ",
"           ::22222==            ",
"            ::2222=             ",
"             ;222;              ",
"                                ",
"                                ",
"                                ",
"                                ",
"                                ",
"                                ",
"                                ",
"                                ",
"                                ",
"                                ",
"                                ",
"                                ",
"                                ",
"                                ",
"                                ",
"                                ",
"                                ",
"             iiii4              ",
"            iivii44             ",
"           iivivi444            ",
"          iivivi44444           ",
"         siiiiii4v4444          ",
"        sviiiiii4444444         ",
"        ssiiiiii4444445         ",
"        ssiiiiii4444445         ",
"        **,,,,,,-------         ",
"        **,,,,,,-------         ",
"         *,,,,,,------          ",
"          *,,,,,-----           ",
"           ,,,,:----            ",
"            ,,,----             ",
"             ,<---              ",
"                                ",
"                                ",
"                                ",
"                                ",
"                                ",
"                                ",
"                                ",
"                                ",
"                                ",
"                                ",
"                                ",
"                                ",
"                                ",
"                                ",
"                                ",
"                                ",
"                                ",
"             ppuuu              ",
"            ppvuuuu             ",
"           ppvpvuuuu            ",
"          ppvpvuuuuuu           ",
"         pppppuuuvuuu1          ",
"        pvpppuuuuuuuu11         ",
"        pppppuuuuuuuu11         ",
"        pppppuuuuuuuu11         ",
"        &<<<---------==         ",
"        &<<<---------==         ",
"         &<<---------=          ",
"          &<---------           ",
"           <--------            ",
"            <------             ",
"             -----              ",
"                                ",
"                                ",
"                                ",
"                                ",
"                                ",
"                                ",
"                                ",
"                                ",
"                                ",
"                                ",
"                                ",
"                                ",
"                                ",
"                                ",
"                                ",
"                                ",
"                                ",
"                                ",
"                                ",
"                                ",
"               xx               ",
"           OX66666>OX           ",
"         xxO>>.>>>66Xxx         ",
"        xx096>>.66>609xx        ",
"        x090>6.>.>66909x        ",
"        x90966>.>...090x        ",
"         090>>>>..>>909         ",
"          09>6>..>>609          ",
"             6..6>6             ",
"                                ",
"                                ",
"                                ",
"                                ",
"                                ",
"                                ",
"                                ",
"                                ",
"                                ",
"                                ",
"                                ",
"                                "
};
