/* XPM */
static char *_ea7c53221594f3c97082ce763a4c0503TVGe4eq2sLFCqDw[] = {
/* columns rows colors chars-per-pixel */
"32 224 33 1 ",
"  c None",
". c #3A1A1A",
"X c #191D27",
"o c #2D2D2D",
"O c #202431",
"+ c #54100C",
"@ c #5E130E",
"# c #5E130F",
"$ c #421F1F",
"% c #631511",
"& c #6D1612",
"* c #6D1814",
"= c #7A1612",
"- c #761C18",
"; c #7E211C",
": c #452222",
"> c #7E6A31",
", c #3A3C40",
"< c #3E3F43",
"1 c #253A78",
"2 c #2C417E",
"3 c #444549",
"4 c #AB1E00",
"5 c #87221E",
"6 c #902622",
"7 c #A72620",
"8 c #D41C00",
"9 c #EA2C03",
"0 c #EA6903",
"q c #927E41",
"w c #9A8443",
"e c #B28686",
"r c #E3A9A7",
/* pixels */
",3333,oo3,,,,oooo3ooo3,,,,<ooo33",
",,,,,,o3,,,,<oo33,,oo3,,,<<ooo3,",
"3,,,,<o3,,,,<<o3,,<<o,,<<ooo3ooo",
"3,,<<ooo,<<<oooo,<oooooooo33,3,o",
"<oooooooooooo33oooo,,,,oo3,,,,,o",
"oo3oo333,oo33,,,oo3,,,<<o3,,,,<o",
"33,o3,,,,o3,,,<ooo,,,,<ooo,<<<<o",
"o,,oo,,,<oo,<<oo3ooo<<<ooooo<ooo",
"oo<ooo<<ooooooo3333oo<oo33,ooo33",
",oooooooo333oo3,,,<oooo3,,,,o3,,",
"<oo333oo3,,,<o3,,<ooo33,,,,<o,,,",
"<o33,,,oo,,<<ooo<oo3oo,,,,<<o,,<",
"<o3,,,,<oooooo3ooo3,,oo,<<<ooooo",
"oo,,,,,<o333o3,3<o3,,<oooo<o333o",
"oo,,,<<oo3,,o3,<ooo,<ooo3ooo3,,,",
"oooo<ooo3,,,oooooooooo33,oo3,,,<",
"o33ooo3oo,,,,<o33,,oo33,,<o3,,,<",
"o3,,o333oo<<ooo3,,,<o3,,,<o,,<<o",
"3,,<o3,,,ooooo3,,,<<o,,<<oooo<oo",
"o,,<o3,,<oo33ooo,<<ooooooo33oooo",
"oo<ooo<<oo3,,,3ooooo333oo33,,oo3",
"3ooo3oooo33,,,,,,o33,,<oo3,,<<o3",
",<o33,ooo3,,,,,<oo3,,<<ooo,<ooo3",
"<oo3,,33oo,,,,<<ooo<oooo3oooo33,",
"oo3,,,,,oo,<<<ooo3ooo333,,ooo3,<",
"oo3,,,,<ooooooo33,oo3,,,,,oooooo",
"3oo,,,<<o333,o3,,,,o,,,,,<o333,o",
"33ooo<ooo3,,,o3,,,<oo,<<<oo3,,,o",
"3,3,ooo33,,,<oo,<ooooooooo33,,oo",
",,,,<o3,,,<<<<oooo33,,o33oo,,oo3",
"oo,<<oo<oooo<oo33,,,,oo3,,oooooo",
"3oooooooo33ooo33ooo,oo3,,,,oooo3",
"     ,oo3,,,,oooo3ooo3,,,,<     ",
"   ,,,o3,,,,<oo33,,oo3,,,<<oo   ",
"  ,,,<o3,,,,<<o3,,<<o,,<<ooo3o  ",
" ,,<<ooo,<<<oooo,<oooooooo33,3, ",
" oooooooooooo33oooo,,,,oo3,,,,,o",
"oo3oo333,oo33,,,oo3,,,<<o3,,,,<o",
"33,o3,,,,o3,,,<ooo,,,,<ooo,<<<<o",
"o,,oo,,,<oo,<<oo3ooo<<<ooooo<ooo",
"oo<ooo<<ooooooo3333oo<oo33,ooo33",
",oooooooo333oo3,,,<oooo3,,,,o3,,",
"<oo333oo3,,,<o3,,<ooo33,,,,<o,,,",
"<o33,,,oo,,<<ooo<oo3oo,,,,<<o,,<",
"<o3,,,,<oooooo3ooo3,,oo,<<<ooooo",
"oo,,,,,<o333o3,3<o3,,<oooo<o333o",
"oo,,,<<oo3,,o3,<ooo,<ooo3ooo3,,,",
"oooo<ooo3,,,oooooooooo33,oo3,,,<",
"o33ooo3oo,,,,<o33,,oo33,,<o3,,,<",
"o3,,o333oo<<ooo3,,,<o3,,,<o,,<<o",
"3,,<o3,,,ooooo3,,,<<o,,<<oooo<oo",
"o,,<o3,,<oo33ooo,<<ooooooo33oooo",
"oo<ooo<<oo3,,,3ooooo333oo33,,oo3",
"3ooo3oooo33,,,,,,o33,,<oo3,,<<o3",
",<o33,ooo3,,,,,<oo3,,<<ooo,<ooo3",
"<oo3,,33oo,,,,<<ooo<oooo3oooo33,",
"oo3,,,,,oo,<<<ooo3ooo333,,ooo3,<",
"oo3,,,,<ooooooo33,oo3,,,,,oooooo",
"3oo,,,<<o333,o3,,,,o,,,,,<o333,o",
"33ooo<ooo3,,,o3,,,<oo,<<<oo3,,,o",
" ,3,ooo33,,,<oo,<ooooooooo33,,o ",
" ,,,<o3,,,<<<<oooo33,,o33oo,,oo ",
"  ,<<oo<oooo<oo33,,,,oo3,,oooo  ",
"     oooo33ooo33ooo,oo3,,,,     ",
",3333,oo3,,,,oooo3ooo3,,,,<ooo33",
",,,,,,o3,,,,       oo3,,,<<ooo3,",
"3,,,,<o3,,             <<ooo3ooo",
"3,,<<ooo,               oo33,3,o",
"<oooooo                  3,,,,,o",
"oo3oo                     ,,,,<o",
"33,o3                      <<<<o",
"o,,o                        <ooo",
"oo<                         oo33",
",oo                          3,,",
"<o                           ,,,",
"<o                            ,<",
"<o                            oo",
"oo                            3o",
"oo                              ",
"o                               ",
"                                ",
"3                               ",
"3                              o",
"o                              o",
"oo                           oo3",
"3oo                          <o3",
",<o                         ooo3",
"<oo3                        o33,",
"oo3,                       oo3,<",
"oo3,,                      ooooo",
"3oo,,,                   <o333,o",
"33ooo<                   oo3,,,o",
"3,3,ooo3               ooo33,,oo",
",,,,<o3,,,           ,o33oo,,oo3",
"oo,<<oo<oooo       ,,oo3,,oooooo",
"3oooooooo33ooo3  oo,oo3,,,,oooo3",
"40000499044449999099904444899900",
"44444490444489900449904448899904",
"04444890444488904488944889990999",
"04488999488899994899999999004049",
"89999999999990099994444990444449",
"99099000499004449904448890444489",
"00490444490444899944448999488889",
"94499444899488990999888999998999",
"99899988999999900009989900499900",
"49999999900099044489999044449044",
"89900099044489044899900444489444",
"89004449944889998990994444889448",
"89044448999999099904499488899999",
"99444448900090408904489999890009",
"99444889904490489994899909990444",
"99998999044499999999990049904448",
"90099909944448900449900448904448",
"90449000998899904448904448944889",
"04489044499999044488944889999899",
"94489044899009994889999999009999",
"99899988990444099999000990044990",
"09990999900444444900448990448890",
"48900499904444489904488999489990",
"89904400994444889998999909999004",
"99044444994888999099900044999048",
"99044448999999900499044444999999",
"09944488900049044449444448900049",
"00999899904449044489948889904449",
"04049990044489948999999999004499",
"44448904448888999900449009944990",
"99488998999989900444499044999999",
"09999999900999009994990444499990",
"                                ",
"            6555555;            ",
"           76555555;=           ",
"          776555555;==          ",
"         776555rr555;==         ",
"        7r7655rr5555;===        ",
"       7rr765rr55555;====       ",
"      7rr7655555555;;=====      ",
"     7777765555555555;=====     ",
"    7777776555rr55555;======    ",
"   77r77765555r555rr5;=======   ",
"  77rr777655rr555rr55;========  ",
" 77rr777765r5555555555;======== ",
" 7rr777765r55555555555;======== ",
" 777777765555555555555;======== ",
" 777777765555555555555;======== ",
" --------##############%%%%%%%% ",
" &&&&&&&#*************#++++++++ ",
" &&&&&&&#*************#++++++++ ",
" &&&&&&&&#************#++++++++ ",
"  &&&&&&&#***********#++++++++  ",
"   &&&&&&#***********#+++++++   ",
"    &&&&&&#**********@++++++    ",
"     &&&&&#**********@+++++     ",
"      &&&&#*********#+++++      ",
"       &&&##********#++++       ",
"        &&&#********#+++        ",
"         &&#********#++         ",
"          &##******#++          ",
"           &#******#+           ",
"            #******#            ",
"                                ",
"           >>>>>>>>>            ",
"          >>qqqqqqqq>>>         ",
"       >>>>wwwwwwwwwwwq>>       ",
"      >qqwww>>>>>>>>wwwqq>      ",
"     >qwwww>qqqqqqqq>>wwwq>     ",
"    >qwwwww>qwwwwwwwqq>>wwq>    ",
"   >qww>ww>qww>>>>>wwwqq>wwq>   ",
"  >qww>qw>qww>qqqqq>>wwwq>wqq>  ",
"  >ww>qww>ww>qqwwwwwq>>wwq>wq>  ",
" >qwq>qw>qw>qqww>>>wwqq>wq>wwq> ",
" >ww>qww>qw>qww>>qq>wwq>wwq>wq> ",
" >wq>qw>qww>qw>qqqqq>wwq>wq>ww> ",
">qw>qww>ww>qww>wwwwwq>ww>wwq>wq>",
">qw>qw>qw>qww>ww>>>wwq>wq>wq>wq>",
">ww>qw>qw>qw>ww>>q>>wq>wq>wq>wq>",
">wq>qw>qw>qw>w>>qww>wq>wq>wq>wq>",
">ww>qw>qw>qw>wqqqww>wq>wq>wq>wq>",
">qw>qw>qw>qw>wwqwwq>wq>wq>wq>wq>",
">qw>qw>qw>qww>wwwq>wwq>wq>wq>wq>",
">qw>qww>ww>qww>>>>wwq>ww>qwq>wq>",
" >ww>qw>qww>qwwwwwwq>wwq>ww>qw> ",
" >qw>qww>qww>qqqqqq>wwq>qwq>qw> ",
" >qww>qw>qqww>>>>>>wwqq>ww>qwq> ",
"  >qw>qww>>qwwwwwwwwq>>wwq>qw>  ",
"  >qww>qwwq>>qqqqqq>>qwwq>qww>  ",
"   >qwq>qwwww>>>>>>qwwwq>qww>   ",
"    >wwq>>qqwwwwwwwwwq>>qww>    ",
"     >wwqq>>qqqqqqqq>>qwww>     ",
"      >wwwqq>>>>>>>>qwwwq>      ",
"       >>wwwwqqqqqqwwwq>>       ",
"         >>>qwwwwwww>>>         ",
"            >>>>>>>>            ",
"                                ",
"                                ",
"                                ",
"                                ",
"                                ",
"                                ",
"                                ",
"                                ",
"                                ",
"                                ",
"                                ",
"               ee               ",
"           OX:::::$OX           ",
"         eeO$$.$$$::Xee         ",
"        ee21:$$.::$:21ee        ",
"        e212$:.$.$::121e        ",
"        e121::$.$...212e        ",
"         212$$$$..$$121         ",
"          21$:$..$$:21          ",
"             :..:$:             ",
"                                ",
"                                ",
"                                ",
"                                ",
"                                ",
"                                ",
"                                ",
"                                ",
"                                ",
"                                ",
"                                ",
"                                "
};
