/* XPM */
static char *c227606e8c654e8fc0cfdf3ec5cb8497yrlGQdeLA95SJnBh[] = {
/* columns rows colors chars-per-pixel */
"32 32 9 1 ",
"  c None",
". c #3A1A1A",
"X c #191D27",
"o c #202431",
"O c #421F1F",
"+ c #452222",
"@ c #253A78",
"# c #2C417E",
"$ c #B28686",
/* pixels */
"                                ",
"                                ",
"                                ",
"                                ",
"                                ",
"                                ",
"                                ",
"                                ",
"                                ",
"                                ",
"                                ",
"               $$               ",
"           oX+++++OoX           ",
"         $$oOO.OOO++X$$         ",
"        $$#@+OO.++O+#@$$        ",
"        $#@#O+.O.O++@#@$        ",
"        $@#@++O.O...#@#$        ",
"         #@#OOOO..OO@#@         ",
"          #@O+O..OO+#@          ",
"             +..+O+             ",
"                                ",
"                                ",
"                                ",
"                                ",
"                                ",
"                                ",
"                                ",
"                                ",
"                                ",
"                                ",
"                                ",
"                                "
};
