/* XPM */
static char *tile_wall1681962717[] = {
/* columns rows colors chars-per-pixel */
"96 96 4 1 ",
"  c #AB1E00",
". c #D41C00",
"X c #EA2C03",
"o c #EA6903",
/* pixels */
"   oooooooooooo   XXXXXXooo            XXXXXXXXXXXXoooXXXXXXXXXooo            ...XXXXXXXXXoooooo",
"   oooooooooooo   XXXXXXooo            XXXXXXXXXXXXoooXXXXXXXXXooo            ...XXXXXXXXXoooooo",
"   oooooooooooo   XXXXXXooo            XXXXXXXXXXXXoooXXXXXXXXXooo            ...XXXXXXXXXoooooo",
"                  XXXooo            ...XXXXXXoooooo      XXXXXXooo         ......XXXXXXXXXooo   ",
"                  XXXooo            ...XXXXXXoooooo      XXXXXXooo         ......XXXXXXXXXooo   ",
"                  XXXooo            ...XXXXXXoooooo      XXXXXXooo         ......XXXXXXXXXooo   ",
"ooo            ...XXXooo            ......XXXooo      ......XXX      ......XXXXXXXXXoooXXXXXXXXX",
"ooo            ...XXXooo            ......XXXooo      ......XXX      ......XXXXXXXXXoooXXXXXXXXX",
"ooo            ...XXXooo            ......XXXooo      ......XXX      ......XXXXXXXXXoooXXXXXXXXX",
"ooo      ......XXXXXXXXX   .........XXXXXXXXXXXX   ...XXXXXXXXXXXXXXXXXXXXXXXXoooooo   ooo   XXX",
"ooo      ......XXXXXXXXX   .........XXXXXXXXXXXX   ...XXXXXXXXXXXXXXXXXXXXXXXXoooooo   ooo   XXX",
"ooo      ......XXXXXXXXX   .........XXXXXXXXXXXX   ...XXXXXXXXXXXXXXXXXXXXXXXXoooooo   ooo   XXX",
"...XXXXXXXXXXXXXXXXXXXXXXXXXXXXXXXXXXXXooooooXXXXXXXXXXXX            XXXXXXooo               XXX",
"...XXXXXXXXXXXXXXXXXXXXXXXXXXXXXXXXXXXXooooooXXXXXXXXXXXX            XXXXXXooo               XXX",
"...XXXXXXXXXXXXXXXXXXXXXXXXXXXXXXXXXXXXooooooXXXXXXXXXXXX            XXXXXXooo               XXX",
"XXXXXXoooXXXXXXooooooooo   XXXXXXoooooo         XXXXXXooo         ......XXXooo            ...XXX",
"XXXXXXoooXXXXXXooooooooo   XXXXXXoooooo         XXXXXXooo         ......XXXooo            ...XXX",
"XXXXXXoooXXXXXXooooooooo   XXXXXXoooooo         XXXXXXooo         ......XXXooo            ...XXX",
"oooooo   XXXooo            XXXooo         ...XXXXXXXXX            ...XXXXXXXXX   ............XXX",
"oooooo   XXXooo            XXXooo         ...XXXXXXXXX            ...XXXXXXXXX   ............XXX",
"oooooo   XXXooo            XXXooo         ...XXXXXXXXX            ...XXXXXXXXX   ............XXX",
"XXX      XXXXXX         ...XXXXXX   ......XXXXXXoooXXXXXXXXX.........XXXXXXXXXXXXXXX...XXXXXXXXX",
"XXX      XXXXXX         ...XXXXXX   ......XXXXXXoooXXXXXXXXX.........XXXXXXXXXXXXXXX...XXXXXXXXX",
"XXX      XXXXXX         ...XXXXXX   ......XXXXXXoooXXXXXXXXX.........XXXXXXXXXXXXXXX...XXXXXXXXX",
"XXXXXX...XXXXXXXXX......XXXXXXXXXXXXXXXXXXXXXooooooooooooXXXXXX...XXXXXXoooooo   XXXXXXXXXoooooo",
"XXXXXX...XXXXXXXXX......XXXXXXXXXXXXXXXXXXXXXooooooooooooXXXXXX...XXXXXXoooooo   XXXXXXXXXoooooo",
"XXXXXX...XXXXXXXXX......XXXXXXXXXXXXXXXXXXXXXooooooooooooXXXXXX...XXXXXXoooooo   XXXXXXXXXoooooo",
"   XXXXXXXXXXXXXXXXXXXXXXXXoooooooooXXXXXXooo         ...XXXXXXXXXXXXooo            XXXooo      ",
"   XXXXXXXXXXXXXXXXXXXXXXXXoooooooooXXXXXXooo         ...XXXXXXXXXXXXooo            XXXooo      ",
"   XXXXXXXXXXXXXXXXXXXXXXXXoooooooooXXXXXXooo         ...XXXXXXXXXXXXooo            XXXooo      ",
"...XXXXXXoooooooooXXXXXXooo         ...XXXooo      ...XXXXXXXXXoooooo            ...XXX         ",
"...XXXXXXoooooooooXXXXXXooo         ...XXXooo      ...XXXXXXXXXoooooo            ...XXX         ",
"...XXXXXXoooooooooXXXXXXooo         ...XXXooo      ...XXXXXXXXXoooooo            ...XXX         ",
"...XXXoooooo         XXXXXX      ......XXXXXXXXX...XXXXXXoooXXXXXX            ......XXX      ...",
"...XXXoooooo         XXXXXX      ......XXXXXXXXX...XXXXXXoooXXXXXX            ......XXX      ...",
"...XXXoooooo         XXXXXX      ......XXXXXXXXX...XXXXXXoooXXXXXX            ......XXX      ...",
"...XXXooo            ...XXXXXXXXXXXXXXXXXXoooXXXXXXXXXooo      XXXXXX   .........XXXXXXXXXXXXXXX",
"...XXXooo            ...XXXXXXXXXXXXXXXXXXoooXXXXXXXXXooo      XXXXXX   .........XXXXXXXXXXXXXXX",
"...XXXooo            ...XXXXXXXXXXXXXXXXXXoooXXXXXXXXXooo      XXXXXX   .........XXXXXXXXXXXXXXX",
"XXXXXX               ...XXXoooooooooXXXooo   ooo...XXXooo      ...XXXXXXXXXXXX...XXXoooooooooXXX",
"XXXXXX               ...XXXoooooooooXXXooo   ooo...XXXooo      ...XXXXXXXXXXXX...XXXoooooooooXXX",
"XXXXXX               ...XXXoooooooooXXXooo   ooo...XXXooo      ...XXXXXXXXXXXX...XXXoooooooooXXX",
"XXXXXX         ......XXXXXXooo      XXXooo   ...XXXXXXXXX   ...XXXXXXXXXoooXXXXXXXXXooo         ",
"XXXXXX         ......XXXXXXooo      XXXooo   ...XXXXXXXXX   ...XXXXXXXXXoooXXXXXXXXXooo         ",
"XXXXXX         ......XXXXXXooo      XXXooo   ...XXXXXXXXX   ...XXXXXXXXXoooXXXXXXXXXooo         ",
"XXXXXXXXXXXX...XXXXXXXXXooo         XXXXXXXXXXXXXXXXXXXXXXXXXXXXXXoooooo   XXXXXXooo         ...",
"XXXXXXXXXXXX...XXXXXXXXXooo         XXXXXXXXXXXXXXXXXXXXXXXXXXXXXXoooooo   XXXXXXooo         ...",
"XXXXXXXXXXXX...XXXXXXXXXooo         XXXXXXXXXXXXXXXXXXXXXXXXXXXXXXoooooo   XXXXXXooo         ...",
"XXXooooooXXXXXXXXXoooXXXXXX            ...XXXoooooo      XXXXXXoooooo      ...XXXooo         ...",
"XXXooooooXXXXXXXXXoooXXXXXX            ...XXXoooooo      XXXXXXoooooo      ...XXXooo         ...",
"XXXooooooXXXXXXXXXoooXXXXXX            ...XXXoooooo      XXXXXXoooooo      ...XXXooo         ...",
"XXXooo      XXXoooooooooXXXXXX......XXXXXXXXXooo         ...XXXooo         ...XXX      ......XXX",
"XXXooo      XXXoooooooooXXXXXX......XXXXXXXXXooo         ...XXXooo         ...XXX      ......XXX",
"XXXooo      XXXoooooooooXXXXXX......XXXXXXXXXooo         ...XXXooo         ...XXX      ......XXX",
"ooo      ...XXXooo         XXXXXXXXXXXXXXXooo         ......XXX      ......XXXXXXXXXXXX...XXXXXX",
"ooo      ...XXXooo         XXXXXXXXXXXXXXXooo         ......XXX      ......XXXXXXXXXXXX...XXXXXX",
"ooo      ...XXXooo         XXXXXXXXXXXXXXXooo         ......XXX      ......XXXXXXXXXXXX...XXXXXX",
"XXX      ...XXXooo      ...XXXXXXooooooXXXXXXXXX   ......XXXXXXXXXXXXXXXXXXXXXooooooXXXXXXXXXXXX",
"XXX      ...XXXooo      ...XXXXXXooooooXXXXXXXXX   ......XXXXXXXXXXXXXXXXXXXXXooooooXXXXXXXXXXXX",
"XXX      ...XXXooo      ...XXXXXXooooooXXXXXXXXX   ......XXXXXXXXXXXXXXXXXXXXXooooooXXXXXXXXXXXX",
"XXXXXX...XXXXXXXXX......XXXXXXooo         oooXXXXXXXXXXXXXXXoooooooooXXXXXXoooooo      XXXXXXooo",
"XXXXXX...XXXXXXXXX......XXXXXXooo         oooXXXXXXXXXXXXXXXoooooooooXXXXXXoooooo      XXXXXXooo",
"XXXXXX...XXXXXXXXX......XXXXXXooo         oooXXXXXXXXXXXXXXXoooooooooXXXXXXoooooo      XXXXXXooo",
"oooXXXXXXXXXoooXXXXXXXXXXXXoooooo                  XXXoooooo      ...XXXXXXooo      ......XXXooo",
"oooXXXXXXXXXoooXXXXXXXXXXXXoooooo                  XXXoooooo      ...XXXXXXooo      ......XXXooo",
"oooXXXXXXXXXoooXXXXXXXXXXXXoooooo                  XXXoooooo      ...XXXXXXooo      ......XXXooo",
"   ...XXXoooooo   XXXXXXXXXooo               ...XXXXXXooo      ......XXXXXXXXX   ...XXXXXXXXXooo",
"   ...XXXoooooo   XXXXXXXXXooo               ...XXXXXXooo      ......XXXXXXXXX   ...XXXXXXXXXooo",
"   ...XXXoooooo   XXXXXXXXXooo               ...XXXXXXooo      ......XXXXXXXXX   ...XXXXXXXXXooo",
"...XXXXXXooo      ooooooXXXXXX            ......XXXXXXXXX...XXXXXXXXXXXXoooXXXXXXXXXXXXoooooo   ",
"...XXXXXXooo      ooooooXXXXXX            ......XXXXXXXXX...XXXXXXXXXXXXoooXXXXXXXXXXXXoooooo   ",
"...XXXXXXooo      ooooooXXXXXX            ......XXXXXXXXX...XXXXXXXXXXXXoooXXXXXXXXXXXXoooooo   ",
"XXXXXXooo               XXXXXX   .........XXXXXXXXXoooXXXXXXXXXooooooooo      XXXXXXXXXooo   ...",
"XXXXXXooo               XXXXXX   .........XXXXXXXXXoooXXXXXXXXXooooooooo      XXXXXXXXXooo   ...",
"XXXXXXooo               XXXXXX   .........XXXXXXXXXoooXXXXXXXXXooooooooo      XXXXXXXXXooo   ...",
"XXXXXXooo            ...XXXXXXXXXXXXXXXXXXXXXoooooo   XXXXXXooo               XXXXXXXXXXXXXXXXXX",
"XXXXXXooo            ...XXXXXXXXXXXXXXXXXXXXXoooooo   XXXXXXooo               XXXXXXXXXXXXXXXXXX",
"XXXXXXooo            ...XXXXXXXXXXXXXXXXXXXXXoooooo   XXXXXXooo               XXXXXXXXXXXXXXXXXX",
"oooXXXXXX         ......XXXooooooooo   XXXooo            XXX               ...XXXooooooooo   XXX",
"oooXXXXXX         ......XXXooooooooo   XXXooo            XXX               ...XXXooooooooo   XXX",
"oooXXXXXX         ......XXXooooooooo   XXXooo            XXX               ...XXXooooooooo   XXX",
"ooooooXXXXXXXXX...XXXXXXXXXooo         XXXooo         ...XXXXXX   .........XXXXXXooo         XXX",
"ooooooXXXXXXXXX...XXXXXXXXXooo         XXXooo         ...XXXXXX   .........XXXXXXooo         XXX",
"ooooooXXXXXXXXX...XXXXXXXXXooo         XXXooo         ...XXXXXX   .........XXXXXXooo         XXX",
"ooo   ooo   XXXXXXXXXoooooo         ...XXXXXX   ...XXXXXXXXXXXXXXXXXXXXXXXXXXXoooooo      XXXXXX",
"ooo   ooo   XXXXXXXXXoooooo         ...XXXXXX   ...XXXXXXXXXXXXXXXXXXXXXXXXXXXoooooo      XXXXXX",
"ooo   ooo   XXXXXXXXXoooooo         ...XXXXXX   ...XXXXXXXXXXXXXXXXXXXXXXXXXXXoooooo      XXXXXX",
"            ...XXXooo         ............XXXXXXXXXXXXoooooo      XXXooooooXXXXXX      XXXXXXooo",
"            ...XXXooo         ............XXXXXXXXXXXXoooooo      XXXooooooXXXXXX      XXXXXXooo",
"            ...XXXooo         ............XXXXXXXXXXXXoooooo      XXXooooooXXXXXX      XXXXXXooo",
"XXXXXX   ......XXXXXX...XXXXXXXXXXXX...XXXXXXoooooo            XXXXXXooo      XXXXXXXXXXXXXXXXXX",
"XXXXXX   ......XXXXXX...XXXXXXXXXXXX...XXXXXXoooooo            XXXXXXooo      XXXXXXXXXXXXXXXXXX",
"XXXXXX   ......XXXXXX...XXXXXXXXXXXX...XXXXXXoooooo            XXXXXXooo      XXXXXXXXXXXXXXXXXX",
"oooXXXXXXXXXXXXXXXXXXXXXXXXooooooXXXXXXXXXooooooXXXXXXXXX   XXXXXXooo            XXXXXXXXXXXXooo",
"oooXXXXXXXXXXXXXXXXXXXXXXXXooooooXXXXXXXXXooooooXXXXXXXXX   XXXXXXooo            XXXXXXXXXXXXooo",
"oooXXXXXXXXXXXXXXXXXXXXXXXXooooooXXXXXXXXXooooooXXXXXXXXX   XXXXXXooo            XXXXXXXXXXXXooo"
};
