/* XPM */
static char *tile_dirt1681962717[] = {
/* columns rows colors chars-per-pixel */
"96 96 4 1 ",
"  c #5B392A",
". c #674432",
"X c #6F4836",
"o c #764F3D",
/* pixels */
"XXXooooooooooooXXX      oooXXXXXXXXXXXX            ooo         oooXXXXXXXXXXXX...         oooooo",
"XXXooooooooooooXXX      oooXXXXXXXXXXXX            ooo         oooXXXXXXXXXXXX...         oooooo",
"XXXooooooooooooXXX      oooXXXXXXXXXXXX            ooo         oooXXXXXXXXXXXX...         oooooo",
"XXXXXXXXXXXXXXXXXX   oooXXXXXXXXXXXX...      ooooooXXXXXX      oooXXXXXXXXX......         oooXXX",
"XXXXXXXXXXXXXXXXXX   oooXXXXXXXXXXXX...      ooooooXXXXXX      oooXXXXXXXXX......         oooXXX",
"XXXXXXXXXXXXXXXXXX   oooXXXXXXXXXXXX...      ooooooXXXXXX      oooXXXXXXXXX......         oooXXX",
"oooXXXXXXXXXXXX...   oooXXXXXXXXXXXX......   oooXXXXXX......   XXXXXX......         ooo         ",
"oooXXXXXXXXXXXX...   oooXXXXXXXXXXXX......   oooXXXXXX......   XXXXXX......         ooo         ",
"oooXXXXXXXXXXXX...   oooXXXXXXXXXXXX......   oooXXXXXX......   XXXXXX......         ooo         ",
"oooXXXXXX......         XXX.........            XXX...                        ooooooXXXoooXXX   ",
"oooXXXXXX......         XXX.........            XXX...                        ooooooXXXoooXXX   ",
"oooXXXXXX......         XXX.........            XXX...                        ooooooXXXoooXXX   ",
"...                                    oooooo            XXXXXXXXXXXX      oooXXXXXXXXXXXXXXX   ",
"...                                    oooooo            XXXXXXXXXXXX      oooXXXXXXXXXXXXXXX   ",
"...                                    oooooo            XXXXXXXXXXXX      oooXXXXXXXXXXXXXXX   ",
"      ooo      oooooooooXXX      ooooooXXXXXXXXX      oooXXXXXXXXX......   oooXXXXXXXXXXXX...   ",
"      ooo      oooooooooXXX      ooooooXXXXXXXXX      oooXXXXXXXXX......   oooXXXXXXXXXXXX...   ",
"      ooo      oooooooooXXX      ooooooXXXXXXXXX      oooXXXXXXXXX......   oooXXXXXXXXXXXX...   ",
"ooooooXXX   oooXXXXXXXXXXXX   oooXXXXXXXXX...         XXXXXXXXXXXX...         XXX............   ",
"ooooooXXX   oooXXXXXXXXXXXX   oooXXXXXXXXX...         XXXXXXXXXXXX...         XXX............   ",
"ooooooXXX   oooXXXXXXXXXXXX   oooXXXXXXXXX...         XXXXXXXXXXXX...         XXX............   ",
"   XXXXXX      XXXXXXXXX...      XXX......      ooo         .........               ...         ",
"   XXXXXX      XXXXXXXXX...      XXX......      ooo         .........               ...         ",
"   XXXXXX      XXXXXXXXX...      XXX......      ooo         .........               ...         ",
"      ...         ......                     oooooooooooo      ...      ooooooXXX         oooooo",
"      ...         ......                     oooooooooooo      ...      ooooooXXX         oooooo",
"      ...         ......                     oooooooooooo      ...      ooooooXXX         oooooo",
"XXX                        ooooooooo      oooXXXXXXXXX...            oooXXXXXXXXXXXX   oooXXXXXX",
"XXX                        ooooooooo      oooXXXXXXXXX...            oooXXXXXXXXXXXX   oooXXXXXX",
"XXX                        ooooooooo      oooXXXXXXXXX...            oooXXXXXXXXXXXX   oooXXXXXX",
"...      ooooooooo      oooXXXXXXXXX...   oooXXXXXX...         ooooooXXXXXXXXXXXX...   XXXXXXXXX",
"...      ooooooooo      oooXXXXXXXXX...   oooXXXXXX...         ooooooXXXXXXXXXXXX...   XXXXXXXXX",
"...      ooooooooo      oooXXXXXXXXX...   oooXXXXXX...         ooooooXXXXXXXXXXXX...   XXXXXXXXX",
"...   ooooooXXXXXXXXX      XXXXXX......         ...      ooo      XXXXXXXXXXXX......   XXXXXX...",
"...   ooooooXXXXXXXXX      XXXXXX......         ...      ooo      XXXXXXXXXXXX......   XXXXXX...",
"...   ooooooXXXXXXXXX      XXXXXX......         ...      ooo      XXXXXXXXXXXX......   XXXXXX...",
"...   oooXXXXXXXXXXXX...                  ooo         oooXXXXXX      XXX.........               ",
"...   oooXXXXXXXXXXXX...                  ooo         oooXXXXXX      XXX.........               ",
"...   oooXXXXXXXXXXXX...                  ooo         oooXXXXXX      XXX.........               ",
"      XXXXXXXXXXXXXXX...   ooooooooo   oooXXXooo...   oooXXXXXX...            ...   ooooooooo   ",
"      XXXXXXXXXXXXXXX...   ooooooooo   oooXXXooo...   oooXXXXXX...            ...   ooooooooo   ",
"      XXXXXXXXXXXXXXX...   ooooooooo   oooXXXooo...   oooXXXXXX...            ...   ooooooooo   ",
"      XXXXXXXXX......      oooXXXXXX   oooXXX...         XXX...         ooo         oooXXXXXXXXX",
"      XXXXXXXXX......      oooXXXXXX   oooXXX...         XXX...         ooo         oooXXXXXXXXX",
"      XXXXXXXXX......      oooXXXXXX   oooXXX...         XXX...         ooo         oooXXXXXXXXX",
"            ...         oooXXXXXXXXX                              ooooooXXX      oooXXXXXXXXX...",
"            ...         oooXXXXXXXXX                              ooooooXXX      oooXXXXXXXXX...",
"            ...         oooXXXXXXXXX                              ooooooXXX      oooXXXXXXXXX...",
"   oooooo         ooo      XXXXXXXXXXXX...   ooooooXXXXXX      ooooooXXXXXX...   oooXXXXXXXXX...",
"   oooooo         ooo      XXXXXXXXXXXX...   ooooooXXXXXX      ooooooXXXXXX...   oooXXXXXXXXX...",
"   oooooo         ooo      XXXXXXXXXXXX...   ooooooXXXXXX      ooooooXXXXXX...   oooXXXXXXXXX...",
"   oooXXXXXX   ooooooooo      ......         oooXXXXXXXXX...   oooXXXXXXXXX...   XXXXXX......   ",
"   oooXXXXXX   ooooooooo      ......         oooXXXXXXXXX...   oooXXXXXXXXX...   XXXXXX......   ",
"   oooXXXXXX   ooooooooo      ......         oooXXXXXXXXX...   oooXXXXXXXXX...   XXXXXX......   ",
"oooXXXXXX...   oooXXXXXXXXX               oooXXXXXXXXX......   XXXXXX......            ...      ",
"oooXXXXXX...   oooXXXXXXXXX               oooXXXXXXXXX......   XXXXXX......            ...      ",
"oooXXXXXX...   oooXXXXXXXXX               oooXXXXXXXXX......   XXXXXX......            ...      ",
"   XXXXXX...   oooXXXXXX...      oooooo         XXX......                     oooooo            ",
"   XXXXXX...   oooXXXXXX...      oooooo         XXX......                     oooooo            ",
"   XXXXXX...   oooXXXXXX...      oooooo         XXX......                     oooooo            ",
"      ...         ......      oooXXXXXXXXXooo               ooooooooo      ooooooXXXXXX      ooo",
"      ...         ......      oooXXXXXXXXXooo               ooooooooo      ooooooXXXXXX      ooo",
"      ...         ......      oooXXXXXXXXXooo               ooooooooo      ooooooXXXXXX      ooo",
"ooo         ooo            ooooooXXXXXXXXXXXXXXXXXX   ooooooXXXXXX...      oooXXXXXX......   ooo",
"ooo         ooo            ooooooXXXXXXXXXXXXXXXXXX   ooooooXXXXXX...      oooXXXXXX......   ooo",
"ooo         ooo            ooooooXXXXXXXXXXXXXXXXXX   ooooooXXXXXX...      oooXXXXXX......   ooo",
"XXX...   ooooooXXX         oooXXXXXXXXXXXXXXX...      oooXXXXXX......         XXX...         ooo",
"XXX...   ooooooXXX         oooXXXXXXXXXXXXXXX...      oooXXXXXX......         XXX...         ooo",
"XXX...   ooooooXXX         oooXXXXXXXXXXXXXXX...      oooXXXXXX......         XXX...         ooo",
"...      oooXXXXXXoooooo      XXXXXXXXXXXX......         ...            ooo            ooooooXXX",
"...      oooXXXXXXoooooo      XXXXXXXXXXXX......         ...            ooo            ooooooXXX",
"...      oooXXXXXXoooooo      XXXXXXXXXXXX......         ...            ooo            ooooooXXX",
"      oooXXXXXXXXXXXXXXX      XXX.........         ooo         oooooooooXXXXXX         oooXXX...",
"      oooXXXXXXXXXXXXXXX      XXX.........         ooo         oooooooooXXXXXX         oooXXX...",
"      oooXXXXXXXXXXXXXXX      XXX.........         ooo         oooooooooXXXXXX         oooXXX...",
"      oooXXXXXXXXXXXX...                     ooooooXXX      oooXXXXXXXXXXXXXXX                  ",
"      oooXXXXXXXXXXXX...                     ooooooXXX      oooXXXXXXXXXXXXXXX                  ",
"      oooXXXXXXXXXXXX...                     ooooooXXX      oooXXXXXXXXXXXXXXX                  ",
"ooo      XXXXXXXXX......   oooooooooXXX   oooXXXXXXXXXXXX   XXXXXXXXXXXXXXX...   oooooooooXXX   ",
"ooo      XXXXXXXXX......   oooooooooXXX   oooXXXXXXXXXXXX   XXXXXXXXXXXXXXX...   oooooooooXXX   ",
"ooo      XXXXXXXXX......   oooooooooXXX   oooXXXXXXXXXXXX   XXXXXXXXXXXXXXX...   oooooooooXXX   ",
"oooooo         ...         oooXXXXXXXXX   oooXXXXXXXXX...      XXX.........      oooXXXXXXXXX   ",
"oooooo         ...         oooXXXXXXXXX   oooXXXXXXXXX...      XXX.........      oooXXXXXXXXX   ",
"oooooo         ...         oooXXXXXXXXX   oooXXXXXXXXX...      XXX.........      oooXXXXXXXXX   ",
"oooXXXoooXXX         ooooooXXXXXXXXX...      XXX...                           ooooooXXXXXX      ",
"oooXXXoooXXX         ooooooXXXXXXXXX...      XXX...                           ooooooXXXXXX      ",
"oooXXXoooXXX         ooooooXXXXXXXXX...      XXX...                           ooooooXXXXXX      ",
"XXXXXXXXXXXX...   oooXXXXXXXXX............            ooooooXXXXXX   oooooo      XXXXXX      ooo",
"XXXXXXXXXXXX...   oooXXXXXXXXX............            ooooooXXXXXX   oooooo      XXXXXX      ooo",
"XXXXXXXXXXXX...   oooXXXXXXXXX............            ooooooXXXXXX   oooooo      XXXXXX      ooo",
"      XXX......      ...            ...      ooooooXXXXXXXXXXXX      oooXXXXXX                  ",
"      XXX......      ...            ...      ooooooXXXXXXXXXXXX      oooXXXXXX                  ",
"      XXX......      ...            ...      ooooooXXXXXXXXXXXX      oooXXXXXX                  ",
"ooo                        oooooo         oooooo         XXX      oooXXXXXXXXXXXX            ooo",
"ooo                        oooooo         oooooo         XXX      oooXXXXXXXXXXXX            ooo",
"ooo                        oooooo         oooooo         XXX      oooXXXXXXXXXXXX            ooo"
};
